<mxfile host="Electron" modified="2024-05-09T08:21:41.431Z" agent="Mozilla/5.0 (X11; Linux x86_64) AppleWebKit/537.36 (KHTML, like Gecko) draw.io/24.2.5 Chrome/120.0.6099.109 Electron/28.1.0 Safari/537.36" etag="_fBLpbVaHtkcTKUBfgjX" version="24.2.5" type="device">
  <diagram name="第 1 页" id="c_rAxj7EMohSRleYDo2U">
    <mxGraphModel dx="795" dy="1722" grid="1" gridSize="10" guides="1" tooltips="1" connect="1" arrows="1" fold="1" page="1" pageScale="1" pageWidth="827" pageHeight="1169" math="0" shadow="0">
      <root>
        <mxCell id="0" />
        <mxCell id="1" parent="0" />
        <mxCell id="5rC3ycqSgCHV3TG2xdDz-1" value="" style="verticalLabelPosition=bottom;shadow=0;dashed=0;align=center;html=1;verticalAlign=top;shape=mxgraph.electrical.transistors.nmos;pointerEvents=1;" vertex="1" parent="1">
          <mxGeometry x="380" y="290" width="60" height="100" as="geometry" />
        </mxCell>
        <mxCell id="5rC3ycqSgCHV3TG2xdDz-2" value="" style="verticalLabelPosition=bottom;shadow=0;dashed=0;align=center;html=1;verticalAlign=top;shape=mxgraph.electrical.transistors.nmos;pointerEvents=1;" vertex="1" parent="1">
          <mxGeometry x="380" y="200" width="60" height="100" as="geometry" />
        </mxCell>
        <mxCell id="5rC3ycqSgCHV3TG2xdDz-3" value="" style="pointerEvents=1;verticalLabelPosition=bottom;shadow=0;dashed=0;align=center;html=1;verticalAlign=top;shape=mxgraph.electrical.signal_sources.signal_ground;" vertex="1" parent="1">
          <mxGeometry x="417.5" y="380" width="45" height="30" as="geometry" />
        </mxCell>
        <mxCell id="5rC3ycqSgCHV3TG2xdDz-4" value="V&lt;sub&gt;dd&lt;/sub&gt;" style="verticalLabelPosition=top;verticalAlign=bottom;shape=mxgraph.electrical.signal_sources.vdd;shadow=0;dashed=0;align=center;strokeWidth=1;fontSize=24;html=1;flipV=1;" vertex="1" parent="1">
          <mxGeometry x="410" y="20" width="60" height="40" as="geometry" />
        </mxCell>
        <mxCell id="5rC3ycqSgCHV3TG2xdDz-5" value="" style="endArrow=none;html=1;strokeWidth=1;rounded=0;" edge="1" parent="1">
          <mxGeometry width="100" relative="1" as="geometry">
            <mxPoint x="440" y="210" as="sourcePoint" />
            <mxPoint x="480" y="210" as="targetPoint" />
          </mxGeometry>
        </mxCell>
        <mxCell id="5rC3ycqSgCHV3TG2xdDz-6" value="" style="verticalLabelPosition=bottom;shadow=0;dashed=0;align=center;html=1;verticalAlign=top;strokeWidth=1;shape=ellipse;" vertex="1" parent="1">
          <mxGeometry x="475" y="205" width="10" height="10" as="geometry" />
        </mxCell>
        <mxCell id="5rC3ycqSgCHV3TG2xdDz-7" value="" style="verticalLabelPosition=bottom;shadow=0;dashed=0;align=center;html=1;verticalAlign=top;strokeWidth=1;shape=ellipse;" vertex="1" parent="1">
          <mxGeometry x="375" y="245" width="10" height="10" as="geometry" />
        </mxCell>
        <mxCell id="5rC3ycqSgCHV3TG2xdDz-8" value="" style="verticalLabelPosition=bottom;shadow=0;dashed=0;align=center;html=1;verticalAlign=top;strokeWidth=1;shape=ellipse;" vertex="1" parent="1">
          <mxGeometry x="375" y="335" width="10" height="10" as="geometry" />
        </mxCell>
        <mxCell id="5rC3ycqSgCHV3TG2xdDz-9" value="&lt;span style=&quot;font-size: 20px;&quot;&gt;V&lt;/span&gt;&lt;span style=&quot;font-size: 16.6667px;&quot;&gt;&lt;sub&gt;B&lt;/sub&gt;&lt;/span&gt;" style="text;html=1;align=center;verticalAlign=middle;whiteSpace=wrap;rounded=0;" vertex="1" parent="1">
          <mxGeometry x="350" y="215" width="60" height="30" as="geometry" />
        </mxCell>
        <mxCell id="5rC3ycqSgCHV3TG2xdDz-10" value="&lt;span style=&quot;font-size: 20px;&quot;&gt;V&lt;/span&gt;&lt;span style=&quot;font-size: 13.8889px;&quot;&gt;in&lt;/span&gt;" style="text;html=1;align=center;verticalAlign=middle;whiteSpace=wrap;rounded=0;" vertex="1" parent="1">
          <mxGeometry x="350" y="305" width="60" height="30" as="geometry" />
        </mxCell>
        <mxCell id="5rC3ycqSgCHV3TG2xdDz-11" value="&lt;span style=&quot;font-size: 20px;&quot;&gt;V&lt;/span&gt;&lt;span style=&quot;font-size: 13.8889px;&quot;&gt;out&lt;/span&gt;" style="text;html=1;align=center;verticalAlign=middle;whiteSpace=wrap;rounded=0;" vertex="1" parent="1">
          <mxGeometry x="450" y="215" width="60" height="30" as="geometry" />
        </mxCell>
        <mxCell id="5rC3ycqSgCHV3TG2xdDz-12" value="&lt;span style=&quot;font-size: 20px;&quot;&gt;M&lt;sub&gt;1&lt;/sub&gt;&lt;/span&gt;" style="text;html=1;align=center;verticalAlign=middle;whiteSpace=wrap;rounded=0;" vertex="1" parent="1">
          <mxGeometry x="430" y="325" width="60" height="30" as="geometry" />
        </mxCell>
        <mxCell id="5rC3ycqSgCHV3TG2xdDz-13" value="&lt;span style=&quot;font-size: 20px;&quot;&gt;M&lt;sub&gt;2&lt;/sub&gt;&lt;/span&gt;" style="text;html=1;align=center;verticalAlign=middle;whiteSpace=wrap;rounded=0;" vertex="1" parent="1">
          <mxGeometry x="425" y="235" width="60" height="30" as="geometry" />
        </mxCell>
        <mxCell id="5rC3ycqSgCHV3TG2xdDz-15" value="&lt;span style=&quot;font-size: 20px;&quot;&gt;V&lt;/span&gt;&lt;span style=&quot;font-size: 16.6667px;&quot;&gt;&lt;sub&gt;B2&lt;/sub&gt;&lt;/span&gt;" style="text;html=1;align=center;verticalAlign=middle;whiteSpace=wrap;rounded=0;" vertex="1" parent="1">
          <mxGeometry x="350" y="130" width="60" height="30" as="geometry" />
        </mxCell>
        <mxCell id="5rC3ycqSgCHV3TG2xdDz-18" value="" style="verticalLabelPosition=bottom;shadow=0;dashed=0;align=center;html=1;verticalAlign=top;shape=mxgraph.electrical.transistors.pmos;pointerEvents=1;" vertex="1" parent="1">
          <mxGeometry x="380" y="115" width="60" height="100" as="geometry" />
        </mxCell>
        <mxCell id="5rC3ycqSgCHV3TG2xdDz-16" value="" style="verticalLabelPosition=bottom;shadow=0;dashed=0;align=center;html=1;verticalAlign=top;strokeWidth=1;shape=ellipse;" vertex="1" parent="1">
          <mxGeometry x="375" y="160" width="10" height="10" as="geometry" />
        </mxCell>
        <mxCell id="5rC3ycqSgCHV3TG2xdDz-17" value="&lt;span style=&quot;font-size: 20px;&quot;&gt;M&lt;/span&gt;&lt;font style=&quot;font-size: 20px;&quot;&gt;&lt;sub&gt;3&lt;/sub&gt;&lt;/font&gt;" style="text;html=1;align=center;verticalAlign=middle;whiteSpace=wrap;rounded=0;" vertex="1" parent="1">
          <mxGeometry x="425" y="150" width="60" height="30" as="geometry" />
        </mxCell>
        <mxCell id="5rC3ycqSgCHV3TG2xdDz-19" value="" style="verticalLabelPosition=bottom;shadow=0;dashed=0;align=center;html=1;verticalAlign=top;shape=mxgraph.electrical.transistors.pmos;pointerEvents=1;" vertex="1" parent="1">
          <mxGeometry x="380" y="30" width="60" height="100" as="geometry" />
        </mxCell>
        <mxCell id="5rC3ycqSgCHV3TG2xdDz-20" value="&lt;span style=&quot;font-size: 20px;&quot;&gt;V&lt;/span&gt;&lt;span style=&quot;font-size: 16.6667px;&quot;&gt;&lt;sub&gt;B2&lt;/sub&gt;&lt;/span&gt;" style="text;html=1;align=center;verticalAlign=middle;whiteSpace=wrap;rounded=0;" vertex="1" parent="1">
          <mxGeometry x="350" y="45" width="60" height="30" as="geometry" />
        </mxCell>
        <mxCell id="5rC3ycqSgCHV3TG2xdDz-21" value="" style="verticalLabelPosition=bottom;shadow=0;dashed=0;align=center;html=1;verticalAlign=top;strokeWidth=1;shape=ellipse;" vertex="1" parent="1">
          <mxGeometry x="375" y="75" width="10" height="10" as="geometry" />
        </mxCell>
        <mxCell id="5rC3ycqSgCHV3TG2xdDz-22" value="&lt;span style=&quot;font-size: 20px;&quot;&gt;M&lt;sub&gt;4&lt;/sub&gt;&lt;/span&gt;" style="text;html=1;align=center;verticalAlign=middle;whiteSpace=wrap;rounded=0;" vertex="1" parent="1">
          <mxGeometry x="425" y="65" width="60" height="30" as="geometry" />
        </mxCell>
      </root>
    </mxGraphModel>
  </diagram>
</mxfile>
